<?xml version="1.0" standalone="no"?>
<!DOCTYPE svg PUBLIC "-//W3C//DTD SVG 20010904//EN"
 "http://www.w3.org/TR/2001/REC-SVG-20010904/DTD/svg10.dtd">
<svg version="1.0" xmlns="http://www.w3.org/2000/svg"
 width="300.000000pt" height="300.000000pt" viewBox="0 0 300.000000 300.000000"
 preserveAspectRatio="xMidYMid meet">
<metadata>
Created by potrace 1.10, written by Peter Selinger 2001-2011
</metadata>
<g transform="translate(0.000000,300.000000) scale(0.100000,-0.100000)"
fill="#000000" stroke="none">
<path d="M1319 2574 c-378 -59 -713 -340 -845 -709 -82 -231 -83 -498 0 -729
134 -376 468 -653 857 -711 125 -19 213 -19 338 0 461 69 837 445 906 906 47
315 -34 615 -235 861 -244 299 -630 443 -1021 382z m416 -52 c85 -20 228 -73
249 -93 6 -5 18 -9 28 -9 10 0 18 -4 18 -9 0 -5 21 -21 46 -36 168 -99 342
-321 418 -535 70 -197 70 -479 -1 -685 -70 -204 -250 -432 -417 -530 -25 -15
-46 -31 -46 -36 0 -5 -5 -9 -11 -9 -6 0 -39 -13 -73 -29 -67 -33 -157 -62
-255 -84 -141 -32 -449 -5 -550 48 -17 8 -31 13 -31 11 0 -3 -26 8 -57 24 -32
17 -63 30 -70 30 -7 0 -13 4 -13 9 0 5 -21 21 -47 36 -202 119 -393 394 -449
650 -37 169 -23 420 33 565 10 25 18 47 18 50 1 3 11 27 23 53 38 85 128 213
203 288 87 88 111 107 173 144 25 15 46 31 46 36 0 5 5 9 12 9 6 0 38 13 72
29 75 35 138 56 236 79 106 25 322 22 445 -6z"/>
<path d="M1340 2429 c-55 -10 -163 -44 -232 -73 -32 -14 -63 -32 -153 -88 -11
-7 -35 -28 -53 -45 -19 -18 -37 -33 -41 -33 -9 0 -101 -104 -115 -129 -5 -9
-12 -18 -16 -21 -15 -10 -91 -161 -115 -227 -131 -356 -20 -776 267 -1020 79
-67 70 -61 153 -110 175 -103 420 -148 621 -112 128 22 333 109 392 166 7 7
17 13 21 13 11 0 133 121 166 165 17 22 33 42 36 45 15 12 91 164 114 227 71
193 71 433 0 626 -22 62 -93 202 -115 231 -76 94 -152 170 -225 224 -76 55
-210 117 -321 148 -71 19 -305 27 -384 13z m315 -43 c613 -109 932 -784 628
-1331 -210 -377 -679 -550 -1089 -401 -524 190 -749 800 -477 1291 182 326
566 507 938 441z"/>
<path d="M1127 1872 c-39 -43 -26 -67 130 -224 l147 -148 -147 -148 c-124
-125 -147 -153 -147 -179 0 -37 27 -63 65 -63 23 0 56 27 177 147 l148 147
148 -147 c125 -124 153 -147 179 -147 37 0 63 27 63 65 0 23 -27 56 -147 177
l-147 148 147 148 c124 125 147 153 147 179 0 37 -27 63 -65 63 -23 0 -56 -27
-177 -147 l-148 -147 -148 147 c-125 124 -153 147 -179 147 -16 0 -37 -8 -46
-18z m195 -155 c67 -68 135 -132 151 -142 26 -17 28 -17 55 0 15 10 83 74 150
142 120 119 162 146 162 105 0 -11 -60 -80 -135 -156 -110 -112 -135 -143
-135 -166 0 -24 25 -54 135 -167 74 -75 135 -145 135 -155 0 -42 -44 -12 -174
117 -115 114 -140 135 -166 135 -26 0 -51 -21 -166 -135 -131 -130 -174 -159
-174 -116 0 10 58 77 135 154 112 113 135 141 135 166 0 24 -24 53 -135 167
-74 76 -135 146 -135 156 0 41 43 13 162 -105z"/>
</g>
</svg>
